<?xml version="1.0" encoding="utf-8"?>
<!-- Generator: Adobe Illustrator 19.0.0, SVG Export Plug-In . SVG Version: 6.00 Build 0)  -->
<svg version="1.1" id="Camada_1" xmlns="http://www.w3.org/2000/svg" xmlns:xlink="http://www.w3.org/1999/xlink" x="0px" y="0px"
	 viewBox="0 0 60 60" style="enable-background:new 0 0 60 60;" xml:space="preserve">
<style type="text/css">
	.st0{fill:#FFFFFF;}
	.st1{fill:#F0B60D;}
</style>
<g id="XMLID_1_">
	<path id="XMLID_6_" class="st0" d="M14.5,52.7L11.2,59c3-2.6,6-5.3,8.9-7.9C18.2,51.6,16.4,52.2,14.5,52.7z"/>
	<polygon id="XMLID_5_" class="st0" points="25.6,32.4 47.5,24.8 53.4,12.6 32.5,19.8 	"/>
	<polygon id="XMLID_7_" class="st0" points="17,48.2 36.9,41.3 42.6,30.8 23.5,37.4 	"/>
</g>
<g id="XMLID_21_">
	<polygon id="XMLID_14_" class="st1" points="13.8,5.6 16.4,1 19,5.6 	"/>
	<polygon id="XMLID_15_" class="st1" points="21.2,6.8 23.8,11.3 26.5,6.8 	"/>
	<polygon id="XMLID_16_" class="st1" points="6.6,6.8 9.2,11.3 11.8,6.8 	"/>
	<polygon id="XMLID_17_" class="st1" points="13.8,19.6 16.4,24.2 19,19.6 	"/>
	<polygon id="XMLID_18_" class="st1" points="21.2,18.3 23.8,13.7 26.5,18.3 	"/>
	<polygon id="XMLID_19_" class="st1" points="6.6,18.3 9.2,13.7 11.8,18.3 	"/>
	<circle id="XMLID_20_" class="st1" cx="16.5" cy="12.4" r="4.7"/>
</g>
</svg>
